<mxfile host="app.diagrams.net" modified="2022-10-26T20:30:28.996Z" agent="5.0 (Windows NT 10.0; Win64; x64) AppleWebKit/537.36 (KHTML, like Gecko) Chrome/106.0.0.0 Safari/537.36" etag="IfufTDr2cO3m7Mn3EgtD" version="20.5.1" type="github">
  <diagram id="GVNMqE3Pz9jLrMNwFkX1" name="Страница 1">
    <mxGraphModel dx="1422" dy="762" grid="1" gridSize="10" guides="1" tooltips="1" connect="1" arrows="1" fold="1" page="1" pageScale="1" pageWidth="827" pageHeight="1169" math="0" shadow="0">
      <root>
        <mxCell id="0" />
        <mxCell id="1" parent="0" />
        <mxCell id="ESEDkcJwH4wxh5NlXbXa-1" value="ldap-main.com" style="image;html=1;image=img/lib/clip_art/computers/Server_128x128.png" vertex="1" parent="1">
          <mxGeometry x="360" y="290" width="80" height="80" as="geometry" />
        </mxCell>
        <mxCell id="ESEDkcJwH4wxh5NlXbXa-2" value="ldap-peer1.com" style="image;html=1;image=img/lib/clip_art/computers/Server_128x128.png" vertex="1" parent="1">
          <mxGeometry x="200" y="200" width="80" height="80" as="geometry" />
        </mxCell>
        <mxCell id="ESEDkcJwH4wxh5NlXbXa-3" value="ldap-peer2.com" style="image;html=1;image=img/lib/clip_art/computers/Server_128x128.png" vertex="1" parent="1">
          <mxGeometry x="520" y="200" width="80" height="80" as="geometry" />
        </mxCell>
        <mxCell id="ESEDkcJwH4wxh5NlXbXa-4" value="ldap-peer3.com" style="image;html=1;image=img/lib/clip_art/computers/Server_128x128.png" vertex="1" parent="1">
          <mxGeometry x="200" y="400" width="80" height="80" as="geometry" />
        </mxCell>
        <mxCell id="ESEDkcJwH4wxh5NlXbXa-5" value="ldap-peer4.com" style="image;html=1;image=img/lib/clip_art/computers/Server_128x128.png" vertex="1" parent="1">
          <mxGeometry x="520" y="400" width="80" height="80" as="geometry" />
        </mxCell>
        <mxCell id="ESEDkcJwH4wxh5NlXbXa-9" value="" style="html=1;shadow=0;dashed=0;align=center;verticalAlign=middle;shape=mxgraph.arrows2.twoWayArrow;dy=0.65;dx=22;rotation=-30;" vertex="1" parent="1">
          <mxGeometry x="260" y="370" width="110" height="30" as="geometry" />
        </mxCell>
        <mxCell id="ESEDkcJwH4wxh5NlXbXa-10" value="" style="html=1;shadow=0;dashed=0;align=center;verticalAlign=middle;shape=mxgraph.arrows2.twoWayArrow;dy=0.65;dx=22;rotation=30;" vertex="1" parent="1">
          <mxGeometry x="430" y="370" width="110" height="30" as="geometry" />
        </mxCell>
        <mxCell id="ESEDkcJwH4wxh5NlXbXa-11" value="" style="html=1;shadow=0;dashed=0;align=center;verticalAlign=middle;shape=mxgraph.arrows2.twoWayArrow;dy=0.65;dx=22;rotation=30;" vertex="1" parent="1">
          <mxGeometry x="270" y="260" width="110" height="30" as="geometry" />
        </mxCell>
        <mxCell id="ESEDkcJwH4wxh5NlXbXa-12" value="" style="html=1;shadow=0;dashed=0;align=center;verticalAlign=middle;shape=mxgraph.arrows2.twoWayArrow;dy=0.65;dx=22;rotation=-30;" vertex="1" parent="1">
          <mxGeometry x="430" y="260" width="110" height="30" as="geometry" />
        </mxCell>
      </root>
    </mxGraphModel>
  </diagram>
</mxfile>
